Patient4_TMGait_0pt8_01_right_45_GRF.mot
version=1
nRows=39
nColumns=19
inDegrees=no
endheader
time	F1x	F1y	F1z	M1x	M1y	M1z	F2x	F2y	F2z	M2x	M2y	M2z	EC1x	EC1y	EC1z	EC2x	EC2y	EC2z
50.61	9.3469	754.9793	57.7038	-287.6309	-65.5738	865.5412	-10.25	7.0375	-3.7254	2.3287	5.8932	12.8284	-0.0592	0.0182	-0.0073	-0.0462	0.0165	0.9585
50.6219	6.0804	752.0867	57.8155	-286.3022	-65.3419	857.7371	-7.0072	5.7391	-2.6723	2.0088	4.2516	9.92	-0.0592	0.0182	-0.0073	-0.0462	0.0165	0.9585
50.6339	3.7201	748.793	57.8703	-284.6958	-64.825	849.1163	-4.3118	4.7112	-1.7399	1.7435	2.8245	7.5732	-0.0592	0.0182	-0.0073	-0.0462	0.0165	0.9585
50.6458	2.3886	745.3838	57.8389	-282.9352	-64.014	840.2086	-2.2786	4.0037	-0.99233	1.5547	1.6969	5.8942	-0.0592	0.0182	-0.0073	-0.0462	0.0165	0.9585
50.6577	2.0372	742.1064	57.718	-281.1403	-62.9369	831.383	-0.89564	3.6026	-0.45378	1.4445	0.89088	4.8609	-0.0592	0.0182	-0.0073	-0.0462	0.0165	0.9585
50.6696	2.5238	739.0811	57.5244	-279.382	-61.6451	822.8083	-0.056221	3.4383	-0.097159	1.3973	0.36452	4.3408	-0.0592	0.0182	-0.0073	-0.0462	0.0165	0.9585
50.6816	3.7006	736.2573	57.3102	-277.6633	-60.2151	814.4189	0.36042	3.4208	0.10364	1.3879	0.076532	4.1657	-0.0592	0.0182	-0.0073	-0.0462	0.0165	0.9585
50.6935	5.4125	733.4515	57.1259	-275.9287	-58.7134	805.9967	0.47384	3.4348	0.19148	1.3813	-0.033611	4.1404	-0.0592	0.0182	-0.0073	-0.0462	0.0165	0.9585
50.7054	7.5763	730.4406	57.0003	-274.0954	-57.1673	797.2764	0.39378	3.3595	0.19718	1.3364	-0.016504	4.0592	-0.0592	0.0182	-0.0073	-0.0462	0.0165	0.9585
50.7174	10.1411	727.0556	56.9785	-272.091	-55.6112	788.0707	0.19768	3.0758	0.15239	1.2087	0.078347	3.722	-0.0592	0.0182	-0.0073	-0.0462	0.0165	0.9585
50.7293	13.0957	723.2537	57.118	-269.8826	-54.0869	778.3331	-0.041267	2.4483	0.077983	0.94736	0.21188	2.9218	-0.0592	0.0182	-0.0073	-0.0462	0.0165	0.9585
50.7412	16.4535	719.1653	57.5027	-267.4954	-52.6615	768.2297	-0.27967	1.3641	-0.0069483	0.50776	0.35428	1.5128	-0.0592	0.0182	-0.0073	-0.0462	0.0165	0.9585
50.7531	20.2273	715.1061	58.216	-265.0266	-51.4178	758.1361	-0.45471	-0.2812	-0.097895	-0.14943	0.48154	-0.6369	-0.0592	0.0182	-0.0073	-0.0462	0.0165	0.9585
50.7651	24.3997	711.543	59.3271	-262.6408	-50.434	748.5951	-0.52034	-2.4958	-0.17666	-1.0309	0.55532	-3.5319	-0.0592	0.0182	-0.0073	-0.0462	0.0165	0.9585
50.777	28.9359	709.021	60.8678	-260.541	-49.7604	740.2173	-0.37462	-5.189	-0.22574	-2.1003	0.52023	-7.0608	-0.0592	0.0182	-0.0073	-0.0462	0.0165	0.9585
50.7889	33.732	708.036	62.8273	-258.9245	-49.4236	733.5685	0.051748	-8.0424	-0.21539	-3.2341	0.3098	-10.7955	-0.0592	0.0182	-0.0073	-0.0462	0.0165	0.9585
50.8009	38.6299	708.9443	65.1498	-257.9493	-49.4251	729.0506	0.88091	-10.462	-0.10893	-4.1921	-0.16673	-13.9704	-0.0592	0.0182	-0.0073	-0.0462	0.0165	0.9585
50.8128	43.4475	711.8927	67.734	-257.7051	-49.7261	726.8266	2.1845	-11.4433	0.1214	-4.5667	-0.9844	-15.2584	-0.0592	0.0182	-0.0073	-0.0462	0.0165	0.9585
50.8247	48.0288	716.7826	70.4536	-258.1923	-50.2545	726.7844	4.0388	-9.517	0.50449	-3.7561	-2.2089	-12.7539	-0.0592	0.0182	-0.0073	-0.0462	0.0165	0.9585
50.8366	52.2879	723.1892	73.1642	-259.2905	-50.8932	728.4765	6.3899	-2.6657	1.0599	-0.94288	-3.8395	-3.8335	-0.0592	0.0182	-0.0073	-0.0462	0.0165	0.9585
50.8486	56.2424	730.3197	75.6998	-260.7427	-51.47	731.0791	9.064	11.553	1.7901	4.8614	-5.7866	14.6669	-0.0592	0.0182	-0.0073	-0.0462	0.0165	0.9585
50.8605	59.9569	736.9271	77.857	-262.1266	-51.7586	733.3179	11.6101	35.7747	2.6541	14.712	-7.7891	46.174	-0.0592	0.0182	-0.0073	-0.0462	0.0165	0.9585
50.8724	63.5444	741.253	79.393	-262.8323	-51.4886	733.4094	13.2655	72.2559	3.5371	29.5065	-9.3563	93.6199	-0.0592	0.0182	-0.0073	-0.0462	0.0165	0.9585
50.8844	67.0329	741.0283	80.0305	-262.0658	-50.3923	729.1294	12.8013	121.9947	4.2145	49.6215	-9.6812	158.3298	-0.0592	0.0182	-0.0073	-0.0462	0.0165	0.9585
50.8963	70.3084	733.603	79.4758	-258.9015	-48.2524	717.9385	8.6407	183.4685	4.3136	74.4069	-7.6555	238.3421	-0.0592	0.0182	-0.0073	-0.0462	0.0165	0.9585
50.9082	73.0524	716.3166	77.4429	-252.4124	-44.9397	697.3833	-0.2414	251.7956	3.3641	101.8416	-2.3098	327.3302	-0.0592	0.0182	-0.0073	-0.0462	0.0165	0.9585
50.9201	74.8075	687.0459	73.7155	-241.8617	-40.4591	665.5726	-12.6058	318.9918	0.67584	128.6541	6.6506	414.7894	-0.0592	0.0182	-0.0073	-0.0462	0.0165	0.9585
50.9321	74.9835	644.7152	68.2694	-226.8719	-35.045	621.6599	-25.7336	377.5858	-4.4697	151.8365	18.8276	490.6451	-0.0592	0.0182	-0.0073	-0.0462	0.0165	0.9585
50.944	73.0468	589.7061	61.2935	-207.5502	-29.1029	566.1815	-37.8846	426.1291	-11.2939	170.7712	32.5804	552.6675	-0.0592	0.0182	-0.0073	-0.0462	0.0165	0.9585
50.9559	68.625	523.789	53.2472	-184.4699	-23.2049	500.9678	-48.0123	466.9945	-18.928	186.4309	46.374	603.7417	-0.0592	0.0182	-0.0073	-0.0462	0.0165	0.9585
50.9679	61.6531	449.905	44.732	-158.6074	-17.9211	428.8789	-55.6834	503.6164	-26.423	200.2344	58.8438	648.3238	-0.0592	0.0182	-0.0073	-0.0462	0.0165	0.9585
50.9798	52.3286	371.9484	36.3163	-131.2845	-13.6748	353.626	-60.7608	538.7323	-33.0796	213.3147	69.0585	689.9837	-0.0592	0.0182	-0.0073	-0.0462	0.0165	0.9585
50.9917	41.2609	294.4529	28.5057	-104.0669	-10.6777	279.4266	-63.4464	573.5741	-38.5373	226.1814	76.6329	730.3875	-0.0592	0.0182	-0.0073	-0.0462	0.0165	0.9585
51.0036	29.5006	221.9848	21.6592	-78.5555	-8.8397	210.4629	-64.0648	608.2061	-42.8485	238.8361	81.78	769.7016	-0.0592	0.0182	-0.0073	-0.0462	0.0165	0.9585
51.0156	18.3944	158.3253	15.983	-56.0934	-7.8307	150.1225	-63.1686	641.9128	-46.4117	250.9361	85.2238	807.2372	-0.0592	0.0182	-0.0073	-0.0462	0.0165	0.9585
51.0275	9.1178	105.7081	11.4856	-37.4923	-7.2084	100.3518	-61.2866	673.4974	-49.6867	261.9561	87.7854	841.7276	-0.0592	0.0182	-0.0073	-0.0462	0.0165	0.9585
51.0394	2.309	64.6958	7.9996	-22.9774	-6.579	61.5745	-58.8939	701.6919	-53.0863	271.3571	90.1818	871.8409	-0.0592	0.0182	-0.0073	-0.0462	0.0165	0.9585
51.0514	-1.9621	34.6495	5.2785	-12.338	-5.6899	33.1403	-56.2982	725.3251	-56.782	278.6877	92.779	896.3146	-0.0592	0.0182	-0.0073	-0.0462	0.0165	0.9585
51.0633	-4.0144	14.1939	3.1406	-5.0927	-4.4955	13.7559	-53.767	743.6418	-60.7331	283.6969	95.6472	914.3654	-0.0592	0.0182	-0.0073	-0.0462	0.0165	0.9585
